# xmcd
#
# Track frame offsets: 
#        150
#        8026
#        19951
#        30677
#        40502
#        50811
#        62136
#        75260
#        84500
#        93351
#        104900
#        115475
#        124625
#        138050
#        147834
#        161017
#        173467
#        182134
#        192259
#        202384
#        209909
#        219009
#        230859
#        242312
#        252437
#        261680
#        274505
#        284855
#        298057
#        308675
#
# Disc length: 4235 seconds
#
# Revision: 0
# Processed by: cddbd v1.5.2PL0 Copyright (c) Steve Scherf et al.
# Submitted via: ExactAudioCopyFreeDBPlugin 1.0
#
DISCID=c610891e
DTITLE=Various Artist - King Tut's Voodoo Hut
DYEAR=1900
DGENRE=Rhythm and Blues
TTITLE0=Davie Allen and The Arrows - Theme From The Unknown
TTITLE1=Ray Peterson - Fever
TTITLE2=Harold Jackson and The Jackson Brothers - Freedom Riders
TTITLE3=Bracey Everett - Lover's Curse
TTITLE4=Magnificent Seven - Baby Doll
TTITLE5=Eddie Taylor - Stroll Out West
TTITLE6=Hayden Thomspon - Watcha Gonna Do
TTITLE7=Rodney and The Blazers - Summertime Rock
TTITLE8=Freddy Butler - Pitter Patter
TTITLE9=Dave Gardner - Mad Witch
TTITLE10=The Rumblers - I Don't Need You No More
TTITLE11=The Swanks - Ghost Train
TTITLE12=The Crew - Why Did You Leave Me Baby
TTITLE13=Tommy Bell - Swamp Gal
TTITLE14=Eugene Church and The Fellows - Sixteen Tons
TTITLE15=Dave Diddle Day - Blue Moon Baby
TTITLE16=Donnie Jacobs - If You Want Good Lovin'
TTITLE17=Sonics - The Hustler
TTITLE18=Billy Adams - Rock Pretty Baby
TTITLE19=Larry O'Keefe - Rollin' Stone
TTITLE20=Johnny Fallin - Wild Streak
TTITLE21=Gene Vincent - I'm Going Home (To See My Baby)
TTITLE22=Long John Hunter - El Paso Rock
TTITLE23=Arthur Grisworld - Pretty Mama Blues
TTITLE24=Little Walter - Up The Line
TTITLE25=Bo Diddley - You Don't Love Me
TTITLE26=Lightnin' Hopkins - Movin' Out Boogie
TTITLE27=Dan Patrick - Call Of The Wild
TTITLE28=Jack Scott - Go Wild Little Sadie
TTITLE29=Stormy Gale - Flipsville
EXTD=
EXTT0=
EXTT1=
EXTT2=
EXTT3=
EXTT4=
EXTT5=
EXTT6=
EXTT7=
EXTT8=
EXTT9=
EXTT10=
EXTT11=
EXTT12=
EXTT13=
EXTT14=
EXTT15=
EXTT16=
EXTT17=
EXTT18=
EXTT19=
EXTT20=
EXTT21=
EXTT22=
EXTT23=
EXTT24=
EXTT25=
EXTT26=
EXTT27=
EXTT28=
EXTT29=
PLAYORDER=
